<?xml version="1.0" encoding="utf-8"?>
<!-- Svg Vector Icons : http://www.onlinewebfonts.com/icon -->
<!DOCTYPE svg PUBLIC "-//W3C//DTD SVG 1.1//EN" "http://www.w3.org/Graphics/SVG/1.1/DTD/svg11.dtd">
<svg version="1.1" xmlns="http://www.w3.org/2000/svg" xmlns:xlink="http://www.w3.org/1999/xlink" x="0px" y="0px" viewBox="0 0 256 256" enable-background="new 0 0 256 256" xml:space="preserve" fill="#fafafa">
<metadata> Svg Vector Icons : http://www.onlinewebfonts.com/icon </metadata>
<g><g><g><path d="M126.2,49.1c-23.5,1.5-45.5,16.4-55.7,37.7l-2,4.1l-4.1,0.3c-15.5,1.2-27.8,7-38.3,17.8c-7.5,7.7-12.3,16.1-15,26.1c-1.1,4.2-1.3,5.5-1.3,13.7c0,7.1,0.1,9.8,0.8,12.5c5.6,22.9,22.8,39.7,45.8,44.8c3.7,0.8,8,0.9,75.7,0.9h71.7l4.2-1.1c14.3-3.6,26.2-13.2,32.6-26.1c2.6-5.2,3.8-9.1,4.7-15.3c3.4-23-12.1-46.1-35.4-52.8c-2.3-0.7-6.1-1.4-8.3-1.6l-4.1-0.3l-0.1-1.4c-0.1-0.8-0.6-3.5-1.1-6c-5.2-26-25.5-46.6-51.5-52.1C140.4,49.2,132.2,48.7,126.2,49.1z M142.5,57.6c12,2.2,23.8,8.6,31.6,16.9c9.5,10.1,14.5,21.8,15.8,36.7c0.5,6.3,0.5,6.2,8.5,6.6c12.4,0.6,21.3,4.5,29.1,12.9c15.7,16.8,13.7,45.3-4.1,59.6c-4.5,3.6-11.1,6.7-16.7,7.9c-4.2,1-5.9,1-76.2,0.9l-71.8-0.1l-4.5-1.3c-6-1.8-12.4-4.9-17.1-8.4c-23.7-17.9-26.2-54.4-5-75.5c9.1-9.1,20.4-13.9,34.3-14.4c3.7-0.1,7-0.4,7.4-0.7c0.4-0.2,1.6-2.4,2.5-4.8c8-20,25.4-33.6,46.8-36.6C127,56.6,138.5,56.9,142.5,57.6z"/><path d="M124.7,94.5c-7.7,1.8-15.4,7.7-19.1,14.9c-1.9,3.7-3.4,8.6-3.4,11.2v1.3h4h4l0.3-2.8c1-10,9.5-17.2,20.1-17.2c8.5,0,15.2,4.1,18.7,11.7c1.2,2.6,1.3,3.3,1.3,8.6c0,5.7,0,5.8-1.8,9.3c-2.1,4.3-4.9,7.1-9.3,9.1c-2.8,1.3-3.8,1.5-8.1,1.7l-4.9,0.2v12.1v12.1h4.1h4.1v-8.2v-8.2l2.5-0.6c9.1-2.1,17.4-10.1,20.6-19.6c1.4-4.1,1.2-11.6-0.2-16.2c-2.8-8.6-10-15.7-18.6-18.6C135,93.9,128.7,93.6,124.7,94.5z"/><path d="M126.5,174.9v3.8h4.1h4.1v-3.8v-3.8h-4.1h-4.1V174.9z"/></g></g></g>
</svg>